# xmcd
#
# Track frame offsets:
#	150
#	20422
#	49507
#	67992
#	86505
#	108480
#	124697
#	145702
#	163650
#	180632
#
# Disc length: 2739 seconds
#
# Revision: 1
# Processed by: cddbd v1.4b41PL3 Copyright (c) Steve Scherf et al.
# Submitted via: audiograbber 1.80
#
DISCID=7b0ab10a
DTITLE=Bitty McLean - Natural High
DYEAR=1900
DGENRE=
TTITLE0=Time
TTITLE1=That´s The Way
TTITLE2=We´ve Only Just Begun
TTITLE3=Giving You The Best I´ve Got
TTITLE4=We´re In This Love Together
TTITLE5=Over The River
TTITLE6=All For One
TTITLE7=I Just Wanna Be With You
TTITLE8=Nothing Can Change This Love
TTITLE9=Natural High (This feeling)
EXTD=
EXTT0=
EXTT1=
EXTT2=
EXTT3=
EXTT4=
EXTT5=
EXTT6=
EXTT7=
EXTT8=
EXTT9=
PLAYORDER=
